<svg xmlns="http://www.w3.org/2000/svg" xmlns:xlink="http://www.w3.org/1999/xlink" id="Layer_1" x="0" y="0" version="1.1" viewBox="0 0 155.25 73.38" style="enable-background:new 0 0 155.25 73.38" xml:space="preserve"><style type="text/css">.st0{fill:#44a98b}.st1{fill:#020403}.st2{fill:#030505}.st3{fill:#030605}.st4{fill:#010302}.st5{fill:#53ac92}.st6{fill:#4eaa8e}.st7{fill:#44a789}</style><g><path d="M95.32,8.27c7.15-5.5,15.23-8.38,24.26-8.26c19.39,0.25,35.94,17.02,35.67,35.84 c-0.16,10.9-3.36,20.2-11.18,27.53c-17.12,16.04-45.09,12.4-56.94-8.11c2.7-0.04,5.4-0.08,8.1-0.12c0.29-1.01,0.83-2.01,0.84-3.02 c0.06-13.23,0.05-26.46,0.01-39.69c0-0.93-0.39-1.86-0.6-2.79C95.42,9.19,95.37,8.73,95.32,8.27z M119.13,19.96 c-10.64,0.03-18.54,7.57-18.53,17.67c0.01,9.95,8.68,18.49,18.77,18.08c12.91-0.53,18.02-9.19,17.85-18.49 C137.02,26.76,130,19.93,119.13,19.96z" class="st0"/><path d="M95.32,8.27c0.05,0.46,0.1,0.92,0.15,1.39c-0.04,1.61-0.1,3.23-0.11,4.84c-0.05,13.55-0.09,27.1-0.14,40.65 c-2.7,0.04-5.4,0.08-8.1,0.12c-0.94-0.71-1.88-1.42-3.05-2.31c-3.59,3.67-8.47,3.95-13.64,1.66c-6.26-2.77-8.99-8.26-9.18-14.52 c-0.14-4.39,0.66-9.29,2.62-13.17c4.14-8.19,13-9.59,21.08-4.06c0-4.77,0-9.45,0-14.6C88.49,8.27,91.9,8.27,95.32,8.27z M82.72,46.14c5.81-4.22,5.92-12.98,0.2-16.54c-3.83-1.87-6.9-1.45-9.19,1.26c-2.79,3.29-3.01,9.52-0.48,13.09 C75.45,47.04,78.47,47.74,82.72,46.14z" class="st1"/><path d="M55.73,55.09c-3.49,0-6.69,0-10.13,0c-0.11-0.91-0.21-1.77-0.35-2.98c-4.14,4.19-8.76,4.57-13.66,3.18 c-4.97-1.41-7.57-4.8-7.68-9.67c-0.1-4.59,2.26-8.33,7-9.82c4.67-1.47,9.53-2.32,15.35-3.69c-1.45-1.71-2.39-3.88-3.89-4.39 c-3.31-1.11-5.67,0.7-6.82,4.11c-3.36,0-6.67,0-9.98,0c0.61-9.19,9.8-12.79,16.36-12.41c8.8,0.51,13.71,5.48,13.85,14.11 c0.11,6.71,0.07,13.43,0.09,20.14C55.86,54.02,55.8,54.38,55.73,55.09z M45.95,39.91c-3.4,0.73-6.46,1.12-9.29,2.14 c-0.97,0.35-2.01,2.36-1.85,3.45c0.13,0.9,1.9,2.1,3.05,2.23C42.71,48.3,44.75,46.36,45.95,39.91z" class="st2"/><path d="M10.24,55.05c-3.68,0-6.87,0-10.24,0c0-11.61,0-23.1,0-34.75c3.35,0,6.54,0,10,0 c0.12,0.78,0.26,1.67,0.33,2.15c3.22-1.25,6.43-2.51,10.16-3.96c0,4.15,0,7.34,0,10.55c-0.17,0.11-0.38,0.36-0.58,0.36 c-6.52-0.14-9.13,1.2-9.62,10.93C10.04,45.14,10.24,49.98,10.24,55.05z" class="st3"/><path d="M119.13,19.96c10.88-0.04,17.9,6.8,18.09,17.25c0.17,9.31-4.94,17.96-17.85,18.49 c-10.09,0.42-18.75-8.12-18.77-18.08C100.59,27.53,108.49,20,119.13,19.96z M126.87,37.55c0-6.01-2.69-9.29-7.62-9.3 c-4.82-0.01-7.96,3.54-8.1,9.13c-0.14,5.67,3.12,9.65,7.94,9.7C124.15,47.14,126.86,43.81,126.87,37.55z" class="st4"/><path d="M95.22,55.15c0.05-13.55,0.09-27.1,0.14-40.65c0.01-1.61,0.07-3.23,0.11-4.84c0.21,0.93,0.6,1.86,0.6,2.79 c0.04,13.23,0.05,26.46-0.01,39.69C96.06,53.14,95.52,54.14,95.22,55.15z" class="st5"/><path d="M82.72,46.14c0.07-5.51,0.13-11.03,0.2-16.54C88.64,33.16,88.53,41.92,82.72,46.14z" class="st6"/><path d="M126.87,37.55c0,6.27-2.72,9.59-7.79,9.54c-4.82-0.05-8.08-4.03-7.94-9.7c0.14-5.6,3.28-9.14,8.1-9.13 C124.18,28.25,126.87,31.54,126.87,37.55z" class="st7"/></g></svg>